<mxfile host="app.diagrams.net" modified="2020-07-08T19:06:41.330Z" agent="5.0 (Windows NT 10.0; WOW64) AppleWebKit/537.36 (KHTML, like Gecko) Chrome/83.0.4103.116 Safari/537.36" etag="__3g5T7jIR9RMNR67IuZ" version="13.3.9" type="github" pages="2">
  <diagram id="aPLw1Pr373AiFehTOySp" name="Flow">
    <mxGraphModel dx="1662" dy="762" grid="1" gridSize="10" guides="1" tooltips="1" connect="1" arrows="1" fold="1" page="1" pageScale="1" pageWidth="850" pageHeight="1100" math="0" shadow="0">
      <root>
        <mxCell id="0" />
        <mxCell id="1" parent="0" />
        <mxCell id="M3cbDM3AeFBdmVFurNVk-60" value="Portfolio Calculation" style="verticalLabelPosition=bottom;verticalAlign=top;html=1;shape=mxgraph.basic.rect;fillColor2=none;strokeWidth=1;size=20;indent=5;fillColor=none;" parent="1" vertex="1">
          <mxGeometry x="190" y="1270" width="1070" height="180" as="geometry" />
        </mxCell>
        <mxCell id="M3cbDM3AeFBdmVFurNVk-82" value="Bhavcopy Utility" style="verticalLabelPosition=bottom;verticalAlign=top;html=1;shape=mxgraph.basic.rect;fillColor2=none;strokeWidth=1;size=20;indent=5;fillColor=none;" parent="1" vertex="1">
          <mxGeometry x="190" y="1550" width="850" height="160" as="geometry" />
        </mxCell>
        <mxCell id="M3cbDM3AeFBdmVFurNVk-25" value="Transaction Management" style="verticalLabelPosition=bottom;verticalAlign=top;html=1;shape=mxgraph.basic.rect;fillColor2=none;strokeWidth=1;size=20;indent=5;fillColor=none;" parent="1" vertex="1">
          <mxGeometry x="190" y="870" width="1060" height="300" as="geometry" />
        </mxCell>
        <mxCell id="2Ltc1vQ2oG4xyeA2Q_cB-206" value="Portfolio Management" style="verticalLabelPosition=bottom;verticalAlign=top;html=1;shape=mxgraph.basic.rect;fillColor2=none;strokeWidth=1;size=20;indent=5;fillColor=none;" parent="1" vertex="1">
          <mxGeometry x="190" y="323" width="1110" height="454" as="geometry" />
        </mxCell>
        <mxCell id="2Ltc1vQ2oG4xyeA2Q_cB-76" value="User Login" style="verticalLabelPosition=bottom;verticalAlign=top;html=1;shape=mxgraph.basic.rect;fillColor2=none;strokeWidth=1;size=20;indent=5;fillColor=none;" parent="1" vertex="1">
          <mxGeometry x="190" y="23" width="730" height="207" as="geometry" />
        </mxCell>
        <mxCell id="2Ltc1vQ2oG4xyeA2Q_cB-63" style="edgeStyle=orthogonalEdgeStyle;rounded=0;orthogonalLoop=1;jettySize=auto;html=1;entryX=0;entryY=0.5;entryDx=0;entryDy=0;entryPerimeter=0;exitX=0.5;exitY=1;exitDx=0;exitDy=0;exitPerimeter=0;" parent="1" source="2Ltc1vQ2oG4xyeA2Q_cB-60" target="2Ltc1vQ2oG4xyeA2Q_cB-62" edge="1">
          <mxGeometry relative="1" as="geometry">
            <Array as="points">
              <mxPoint x="110" y="113" />
              <mxPoint x="198" y="113" />
            </Array>
          </mxGeometry>
        </mxCell>
        <mxCell id="2Ltc1vQ2oG4xyeA2Q_cB-60" value="Start" style="strokeWidth=2;html=1;shape=mxgraph.flowchart.start_1;whiteSpace=wrap;" parent="1" vertex="1">
          <mxGeometry x="50" y="34" width="100" height="45" as="geometry" />
        </mxCell>
        <mxCell id="2Ltc1vQ2oG4xyeA2Q_cB-65" style="edgeStyle=orthogonalEdgeStyle;rounded=0;orthogonalLoop=1;jettySize=auto;html=1;" parent="1" source="2Ltc1vQ2oG4xyeA2Q_cB-62" target="2Ltc1vQ2oG4xyeA2Q_cB-64" edge="1">
          <mxGeometry relative="1" as="geometry" />
        </mxCell>
        <mxCell id="2Ltc1vQ2oG4xyeA2Q_cB-62" value="Display Login Page" style="strokeWidth=2;html=1;shape=mxgraph.flowchart.display;whiteSpace=wrap;" parent="1" vertex="1">
          <mxGeometry x="235" y="82.5" width="100" height="60" as="geometry" />
        </mxCell>
        <mxCell id="2Ltc1vQ2oG4xyeA2Q_cB-67" style="edgeStyle=orthogonalEdgeStyle;rounded=0;orthogonalLoop=1;jettySize=auto;html=1;entryX=0;entryY=0.5;entryDx=0;entryDy=0;entryPerimeter=0;" parent="1" source="2Ltc1vQ2oG4xyeA2Q_cB-64" target="2Ltc1vQ2oG4xyeA2Q_cB-66" edge="1">
          <mxGeometry relative="1" as="geometry" />
        </mxCell>
        <mxCell id="2Ltc1vQ2oG4xyeA2Q_cB-64" value="Input Login&lt;br&gt;Cred" style="html=1;strokeWidth=2;shape=manualInput;whiteSpace=wrap;rounded=1;size=26;arcSize=11;" parent="1" vertex="1">
          <mxGeometry x="420" y="79" width="100" height="67" as="geometry" />
        </mxCell>
        <mxCell id="2Ltc1vQ2oG4xyeA2Q_cB-68" style="edgeStyle=orthogonalEdgeStyle;rounded=0;orthogonalLoop=1;jettySize=auto;html=1;entryX=0.5;entryY=1;entryDx=0;entryDy=0;entryPerimeter=0;" parent="1" source="2Ltc1vQ2oG4xyeA2Q_cB-66" target="2Ltc1vQ2oG4xyeA2Q_cB-62" edge="1">
          <mxGeometry relative="1" as="geometry">
            <Array as="points">
              <mxPoint x="650" y="190" />
              <mxPoint x="285" y="190" />
            </Array>
          </mxGeometry>
        </mxCell>
        <mxCell id="2Ltc1vQ2oG4xyeA2Q_cB-73" style="edgeStyle=orthogonalEdgeStyle;rounded=0;orthogonalLoop=1;jettySize=auto;html=1;entryX=0;entryY=0.5;entryDx=0;entryDy=0;" parent="1" source="2Ltc1vQ2oG4xyeA2Q_cB-66" target="2Ltc1vQ2oG4xyeA2Q_cB-72" edge="1">
          <mxGeometry relative="1" as="geometry" />
        </mxCell>
        <mxCell id="2Ltc1vQ2oG4xyeA2Q_cB-66" value="Login&lt;br&gt;Success?" style="strokeWidth=2;html=1;shape=mxgraph.flowchart.decision;whiteSpace=wrap;" parent="1" vertex="1">
          <mxGeometry x="600" y="63" width="100" height="100" as="geometry" />
        </mxCell>
        <mxCell id="2Ltc1vQ2oG4xyeA2Q_cB-69" value="No" style="text;html=1;align=center;verticalAlign=middle;resizable=0;points=[];autosize=1;" parent="1" vertex="1">
          <mxGeometry x="620" y="163" width="30" height="20" as="geometry" />
        </mxCell>
        <mxCell id="2Ltc1vQ2oG4xyeA2Q_cB-72" value="Portfolio Management" style="verticalLabelPosition=bottom;verticalAlign=top;html=1;shape=process;whiteSpace=wrap;rounded=1;size=0.14;arcSize=6;" parent="1" vertex="1">
          <mxGeometry x="770" y="83" width="100" height="60" as="geometry" />
        </mxCell>
        <mxCell id="2Ltc1vQ2oG4xyeA2Q_cB-77" value="User Registration" style="verticalLabelPosition=bottom;verticalAlign=top;html=1;shape=mxgraph.basic.rect;fillColor2=none;strokeWidth=1;size=20;indent=5;fillColor=none;" parent="1" vertex="1">
          <mxGeometry x="1010" y="23" width="900" height="207" as="geometry" />
        </mxCell>
        <mxCell id="2Ltc1vQ2oG4xyeA2Q_cB-78" style="edgeStyle=orthogonalEdgeStyle;rounded=0;orthogonalLoop=1;jettySize=auto;html=1;entryX=0;entryY=0.5;entryDx=0;entryDy=0;entryPerimeter=0;" parent="1" source="2Ltc1vQ2oG4xyeA2Q_cB-79" target="2Ltc1vQ2oG4xyeA2Q_cB-81" edge="1">
          <mxGeometry relative="1" as="geometry" />
        </mxCell>
        <mxCell id="2Ltc1vQ2oG4xyeA2Q_cB-79" value="Start" style="strokeWidth=2;html=1;shape=mxgraph.flowchart.start_1;whiteSpace=wrap;" parent="1" vertex="1">
          <mxGeometry x="1050" y="90" width="100" height="45" as="geometry" />
        </mxCell>
        <mxCell id="2Ltc1vQ2oG4xyeA2Q_cB-80" style="edgeStyle=orthogonalEdgeStyle;rounded=0;orthogonalLoop=1;jettySize=auto;html=1;" parent="1" source="2Ltc1vQ2oG4xyeA2Q_cB-81" target="2Ltc1vQ2oG4xyeA2Q_cB-83" edge="1">
          <mxGeometry relative="1" as="geometry" />
        </mxCell>
        <mxCell id="2Ltc1vQ2oG4xyeA2Q_cB-81" value="Display Registration&lt;br&gt;Page" style="strokeWidth=2;html=1;shape=mxgraph.flowchart.display;whiteSpace=wrap;" parent="1" vertex="1">
          <mxGeometry x="1225" y="82.5" width="100" height="60" as="geometry" />
        </mxCell>
        <mxCell id="2Ltc1vQ2oG4xyeA2Q_cB-82" style="edgeStyle=orthogonalEdgeStyle;rounded=0;orthogonalLoop=1;jettySize=auto;html=1;entryX=0;entryY=0.5;entryDx=0;entryDy=0;entryPerimeter=0;" parent="1" source="2Ltc1vQ2oG4xyeA2Q_cB-83" target="2Ltc1vQ2oG4xyeA2Q_cB-86" edge="1">
          <mxGeometry relative="1" as="geometry" />
        </mxCell>
        <mxCell id="2Ltc1vQ2oG4xyeA2Q_cB-83" value="Input&lt;br&gt;Registration&lt;br&gt;Details" style="html=1;strokeWidth=2;shape=manualInput;whiteSpace=wrap;rounded=1;size=26;arcSize=11;" parent="1" vertex="1">
          <mxGeometry x="1410" y="69.5" width="100" height="86" as="geometry" />
        </mxCell>
        <mxCell id="2Ltc1vQ2oG4xyeA2Q_cB-84" style="edgeStyle=orthogonalEdgeStyle;rounded=0;orthogonalLoop=1;jettySize=auto;html=1;entryX=0.5;entryY=1;entryDx=0;entryDy=0;entryPerimeter=0;" parent="1" source="2Ltc1vQ2oG4xyeA2Q_cB-86" target="2Ltc1vQ2oG4xyeA2Q_cB-81" edge="1">
          <mxGeometry relative="1" as="geometry">
            <Array as="points">
              <mxPoint x="1640" y="190" />
              <mxPoint x="1275" y="190" />
            </Array>
          </mxGeometry>
        </mxCell>
        <mxCell id="2Ltc1vQ2oG4xyeA2Q_cB-85" style="edgeStyle=orthogonalEdgeStyle;rounded=0;orthogonalLoop=1;jettySize=auto;html=1;entryX=0;entryY=0.5;entryDx=0;entryDy=0;" parent="1" source="2Ltc1vQ2oG4xyeA2Q_cB-86" target="2Ltc1vQ2oG4xyeA2Q_cB-88" edge="1">
          <mxGeometry relative="1" as="geometry" />
        </mxCell>
        <mxCell id="2Ltc1vQ2oG4xyeA2Q_cB-86" value="Registration&lt;br&gt;Success?" style="strokeWidth=2;html=1;shape=mxgraph.flowchart.decision;whiteSpace=wrap;" parent="1" vertex="1">
          <mxGeometry x="1590" y="63" width="100" height="100" as="geometry" />
        </mxCell>
        <mxCell id="2Ltc1vQ2oG4xyeA2Q_cB-87" value="No" style="text;html=1;align=center;verticalAlign=middle;resizable=0;points=[];autosize=1;" parent="1" vertex="1">
          <mxGeometry x="1610" y="163" width="30" height="20" as="geometry" />
        </mxCell>
        <mxCell id="2Ltc1vQ2oG4xyeA2Q_cB-88" value="User Login" style="verticalLabelPosition=bottom;verticalAlign=top;html=1;shape=process;whiteSpace=wrap;rounded=1;size=0.14;arcSize=6;" parent="1" vertex="1">
          <mxGeometry x="1760" y="83" width="100" height="60" as="geometry" />
        </mxCell>
        <mxCell id="2Ltc1vQ2oG4xyeA2Q_cB-89" value="Yes" style="text;html=1;align=center;verticalAlign=middle;resizable=0;points=[];autosize=1;" parent="1" vertex="1">
          <mxGeometry x="690" y="90" width="40" height="20" as="geometry" />
        </mxCell>
        <mxCell id="2Ltc1vQ2oG4xyeA2Q_cB-90" value="Yes" style="text;html=1;align=center;verticalAlign=middle;resizable=0;points=[];autosize=1;" parent="1" vertex="1">
          <mxGeometry x="1680" y="90" width="40" height="20" as="geometry" />
        </mxCell>
        <mxCell id="2Ltc1vQ2oG4xyeA2Q_cB-98" style="edgeStyle=orthogonalEdgeStyle;rounded=0;orthogonalLoop=1;jettySize=auto;html=1;entryX=0;entryY=0.5;entryDx=0;entryDy=0;entryPerimeter=0;" parent="1" source="2Ltc1vQ2oG4xyeA2Q_cB-97" target="2Ltc1vQ2oG4xyeA2Q_cB-62" edge="1">
          <mxGeometry relative="1" as="geometry">
            <Array as="points">
              <mxPoint x="100" y="113" />
              <mxPoint x="193" y="113" />
            </Array>
          </mxGeometry>
        </mxCell>
        <mxCell id="2Ltc1vQ2oG4xyeA2Q_cB-97" value="User&lt;br&gt;Registration" style="verticalLabelPosition=bottom;verticalAlign=top;html=1;shape=process;whiteSpace=wrap;rounded=1;size=0.14;arcSize=6;" parent="1" vertex="1">
          <mxGeometry x="50" y="160" width="100" height="43" as="geometry" />
        </mxCell>
        <mxCell id="2Ltc1vQ2oG4xyeA2Q_cB-102" style="edgeStyle=orthogonalEdgeStyle;rounded=0;orthogonalLoop=1;jettySize=auto;html=1;entryX=0;entryY=0.5;entryDx=0;entryDy=0;entryPerimeter=0;" parent="1" source="2Ltc1vQ2oG4xyeA2Q_cB-99" target="2Ltc1vQ2oG4xyeA2Q_cB-101" edge="1">
          <mxGeometry relative="1" as="geometry" />
        </mxCell>
        <mxCell id="2Ltc1vQ2oG4xyeA2Q_cB-99" value="User Login" style="verticalLabelPosition=bottom;verticalAlign=top;html=1;shape=process;whiteSpace=wrap;rounded=1;size=0.14;arcSize=6;" parent="1" vertex="1">
          <mxGeometry x="50" y="394.5" width="100" height="43" as="geometry" />
        </mxCell>
        <mxCell id="2Ltc1vQ2oG4xyeA2Q_cB-151" style="edgeStyle=orthogonalEdgeStyle;rounded=0;orthogonalLoop=1;jettySize=auto;html=1;entryX=0;entryY=0.5;entryDx=0;entryDy=0;" parent="1" source="2Ltc1vQ2oG4xyeA2Q_cB-101" target="2Ltc1vQ2oG4xyeA2Q_cB-129" edge="1">
          <mxGeometry relative="1" as="geometry" />
        </mxCell>
        <mxCell id="2Ltc1vQ2oG4xyeA2Q_cB-187" style="edgeStyle=orthogonalEdgeStyle;rounded=0;orthogonalLoop=1;jettySize=auto;html=1;" parent="1" source="2Ltc1vQ2oG4xyeA2Q_cB-101" target="2Ltc1vQ2oG4xyeA2Q_cB-103" edge="1">
          <mxGeometry relative="1" as="geometry" />
        </mxCell>
        <mxCell id="2Ltc1vQ2oG4xyeA2Q_cB-101" value="Has Default&lt;br&gt;Portfolio" style="strokeWidth=2;html=1;shape=mxgraph.flowchart.decision;whiteSpace=wrap;fillColor=none;" parent="1" vertex="1">
          <mxGeometry x="235" y="366" width="100" height="100" as="geometry" />
        </mxCell>
        <mxCell id="2Ltc1vQ2oG4xyeA2Q_cB-124" style="edgeStyle=orthogonalEdgeStyle;rounded=0;orthogonalLoop=1;jettySize=auto;html=1;entryX=0;entryY=0.5;entryDx=0;entryDy=0;" parent="1" source="2Ltc1vQ2oG4xyeA2Q_cB-103" target="2Ltc1vQ2oG4xyeA2Q_cB-125" edge="1">
          <mxGeometry relative="1" as="geometry">
            <mxPoint x="415" y="546.5" as="targetPoint" />
          </mxGeometry>
        </mxCell>
        <mxCell id="2Ltc1vQ2oG4xyeA2Q_cB-103" value="Create New Portfolio" style="rounded=1;whiteSpace=wrap;html=1;absoluteArcSize=1;arcSize=14;strokeWidth=2;fillColor=none;" parent="1" vertex="1">
          <mxGeometry x="235" y="516.5" width="100" height="60" as="geometry" />
        </mxCell>
        <mxCell id="2Ltc1vQ2oG4xyeA2Q_cB-105" value="No" style="text;html=1;align=center;verticalAlign=middle;resizable=0;points=[];autosize=1;" parent="1" vertex="1">
          <mxGeometry x="286" y="460" width="30" height="20" as="geometry" />
        </mxCell>
        <mxCell id="2Ltc1vQ2oG4xyeA2Q_cB-179" style="edgeStyle=orthogonalEdgeStyle;rounded=0;orthogonalLoop=1;jettySize=auto;html=1;entryX=0;entryY=0.5;entryDx=0;entryDy=0;entryPerimeter=0;" parent="1" source="2Ltc1vQ2oG4xyeA2Q_cB-106" target="2Ltc1vQ2oG4xyeA2Q_cB-178" edge="1">
          <mxGeometry relative="1" as="geometry" />
        </mxCell>
        <mxCell id="2Ltc1vQ2oG4xyeA2Q_cB-197" style="edgeStyle=orthogonalEdgeStyle;rounded=0;orthogonalLoop=1;jettySize=auto;html=1;entryX=0.5;entryY=0;entryDx=0;entryDy=0;entryPerimeter=0;" parent="1" source="2Ltc1vQ2oG4xyeA2Q_cB-106" target="2Ltc1vQ2oG4xyeA2Q_cB-191" edge="1">
          <mxGeometry relative="1" as="geometry" />
        </mxCell>
        <mxCell id="2Ltc1vQ2oG4xyeA2Q_cB-106" value="Display&lt;br&gt;Portfolio" style="strokeWidth=2;html=1;shape=mxgraph.flowchart.display;whiteSpace=wrap;fillColor=none;" parent="1" vertex="1">
          <mxGeometry x="830" y="386" width="100" height="60" as="geometry" />
        </mxCell>
        <mxCell id="2Ltc1vQ2oG4xyeA2Q_cB-118" value="Yes" style="text;html=1;align=center;verticalAlign=middle;resizable=0;points=[];autosize=1;" parent="1" vertex="1">
          <mxGeometry x="322" y="388" width="40" height="20" as="geometry" />
        </mxCell>
        <mxCell id="2Ltc1vQ2oG4xyeA2Q_cB-204" style="edgeStyle=orthogonalEdgeStyle;rounded=0;orthogonalLoop=1;jettySize=auto;html=1;entryX=0;entryY=0.5;entryDx=0;entryDy=0;" parent="1" source="2Ltc1vQ2oG4xyeA2Q_cB-125" target="2Ltc1vQ2oG4xyeA2Q_cB-129" edge="1">
          <mxGeometry relative="1" as="geometry">
            <Array as="points">
              <mxPoint x="570" y="550" />
              <mxPoint x="570" y="416" />
            </Array>
          </mxGeometry>
        </mxCell>
        <mxCell id="2Ltc1vQ2oG4xyeA2Q_cB-125" value="TM / Add Transaction" style="verticalLabelPosition=bottom;verticalAlign=top;html=1;shape=process;whiteSpace=wrap;rounded=1;size=0.14;arcSize=6;" parent="1" vertex="1">
          <mxGeometry x="420" y="516.5" width="100" height="60" as="geometry" />
        </mxCell>
        <mxCell id="2Ltc1vQ2oG4xyeA2Q_cB-133" style="edgeStyle=orthogonalEdgeStyle;rounded=0;orthogonalLoop=1;jettySize=auto;html=1;entryX=0;entryY=0.5;entryDx=0;entryDy=0;entryPerimeter=0;" parent="1" source="2Ltc1vQ2oG4xyeA2Q_cB-129" target="2Ltc1vQ2oG4xyeA2Q_cB-106" edge="1">
          <mxGeometry relative="1" as="geometry" />
        </mxCell>
        <mxCell id="2Ltc1vQ2oG4xyeA2Q_cB-129" value="Portfolio&lt;br&gt;Calculation" style="verticalLabelPosition=bottom;verticalAlign=top;html=1;shape=process;whiteSpace=wrap;rounded=1;size=0.14;arcSize=6;" parent="1" vertex="1">
          <mxGeometry x="640" y="386" width="100" height="60" as="geometry" />
        </mxCell>
        <mxCell id="2Ltc1vQ2oG4xyeA2Q_cB-153" style="edgeStyle=orthogonalEdgeStyle;rounded=0;orthogonalLoop=1;jettySize=auto;html=1;entryX=0;entryY=0.5;entryDx=0;entryDy=0;" parent="1" source="2Ltc1vQ2oG4xyeA2Q_cB-152" target="2Ltc1vQ2oG4xyeA2Q_cB-103" edge="1">
          <mxGeometry relative="1" as="geometry" />
        </mxCell>
        <mxCell id="2Ltc1vQ2oG4xyeA2Q_cB-152" value="PM / New Portfolio" style="verticalLabelPosition=bottom;verticalAlign=top;html=1;shape=process;whiteSpace=wrap;rounded=1;size=0.14;arcSize=6;" parent="1" vertex="1">
          <mxGeometry x="50" y="525" width="100" height="43" as="geometry" />
        </mxCell>
        <mxCell id="2Ltc1vQ2oG4xyeA2Q_cB-168" style="edgeStyle=orthogonalEdgeStyle;rounded=0;orthogonalLoop=1;jettySize=auto;html=1;entryX=0;entryY=0.5;entryDx=0;entryDy=0;entryPerimeter=0;" parent="1" source="2Ltc1vQ2oG4xyeA2Q_cB-169" target="2Ltc1vQ2oG4xyeA2Q_cB-171" edge="1">
          <mxGeometry relative="1" as="geometry" />
        </mxCell>
        <mxCell id="2Ltc1vQ2oG4xyeA2Q_cB-169" value="PM / List Portfolio" style="verticalLabelPosition=bottom;verticalAlign=top;html=1;shape=process;whiteSpace=wrap;rounded=1;size=0.14;arcSize=6;" parent="1" vertex="1">
          <mxGeometry x="50" y="673.5" width="100" height="43" as="geometry" />
        </mxCell>
        <mxCell id="2Ltc1vQ2oG4xyeA2Q_cB-170" style="edgeStyle=orthogonalEdgeStyle;rounded=0;orthogonalLoop=1;jettySize=auto;html=1;" parent="1" source="2Ltc1vQ2oG4xyeA2Q_cB-171" target="2Ltc1vQ2oG4xyeA2Q_cB-172" edge="1">
          <mxGeometry relative="1" as="geometry" />
        </mxCell>
        <mxCell id="2Ltc1vQ2oG4xyeA2Q_cB-171" value="Display&lt;br&gt;Portfolio&lt;br&gt;List" style="strokeWidth=2;html=1;shape=mxgraph.flowchart.display;whiteSpace=wrap;fillColor=none;" parent="1" vertex="1">
          <mxGeometry x="235" y="665" width="100" height="60" as="geometry" />
        </mxCell>
        <mxCell id="2Ltc1vQ2oG4xyeA2Q_cB-174" style="edgeStyle=orthogonalEdgeStyle;rounded=0;orthogonalLoop=1;jettySize=auto;html=1;entryX=0;entryY=0.5;entryDx=0;entryDy=0;" parent="1" source="2Ltc1vQ2oG4xyeA2Q_cB-172" target="2Ltc1vQ2oG4xyeA2Q_cB-129" edge="1">
          <mxGeometry relative="1" as="geometry">
            <mxPoint x="610" y="616" as="targetPoint" />
            <Array as="points">
              <mxPoint x="570" y="695" />
              <mxPoint x="570" y="416" />
            </Array>
          </mxGeometry>
        </mxCell>
        <mxCell id="2Ltc1vQ2oG4xyeA2Q_cB-172" value="Selection of&lt;br&gt;Portfolio" style="html=1;strokeWidth=2;shape=manualInput;whiteSpace=wrap;rounded=1;size=26;arcSize=11;fillColor=none;" parent="1" vertex="1">
          <mxGeometry x="420" y="656" width="100" height="78" as="geometry" />
        </mxCell>
        <mxCell id="2Ltc1vQ2oG4xyeA2Q_cB-181" style="edgeStyle=orthogonalEdgeStyle;rounded=0;orthogonalLoop=1;jettySize=auto;html=1;entryX=0;entryY=0.5;entryDx=0;entryDy=0;entryPerimeter=0;" parent="1" source="2Ltc1vQ2oG4xyeA2Q_cB-178" target="2Ltc1vQ2oG4xyeA2Q_cB-180" edge="1">
          <mxGeometry relative="1" as="geometry" />
        </mxCell>
        <mxCell id="2Ltc1vQ2oG4xyeA2Q_cB-184" style="edgeStyle=orthogonalEdgeStyle;rounded=0;orthogonalLoop=1;jettySize=auto;html=1;entryX=0.5;entryY=0;entryDx=0;entryDy=0;" parent="1" source="2Ltc1vQ2oG4xyeA2Q_cB-178" target="2Ltc1vQ2oG4xyeA2Q_cB-183" edge="1">
          <mxGeometry relative="1" as="geometry" />
        </mxCell>
        <mxCell id="2Ltc1vQ2oG4xyeA2Q_cB-178" value="Make&lt;br&gt;Default?" style="strokeWidth=2;html=1;shape=mxgraph.flowchart.decision;whiteSpace=wrap;fillColor=none;" parent="1" vertex="1">
          <mxGeometry x="1005" y="366" width="100" height="100" as="geometry" />
        </mxCell>
        <mxCell id="2Ltc1vQ2oG4xyeA2Q_cB-180" value="End" style="strokeWidth=2;html=1;shape=mxgraph.flowchart.terminator;whiteSpace=wrap;fillColor=none;" parent="1" vertex="1">
          <mxGeometry x="1165" y="401" width="100" height="30" as="geometry" />
        </mxCell>
        <mxCell id="2Ltc1vQ2oG4xyeA2Q_cB-182" value="No" style="text;html=1;align=center;verticalAlign=middle;resizable=0;points=[];autosize=1;" parent="1" vertex="1">
          <mxGeometry x="1105" y="388" width="30" height="20" as="geometry" />
        </mxCell>
        <mxCell id="2Ltc1vQ2oG4xyeA2Q_cB-185" style="edgeStyle=orthogonalEdgeStyle;rounded=0;orthogonalLoop=1;jettySize=auto;html=1;entryX=0;entryY=0.5;entryDx=0;entryDy=0;entryPerimeter=0;" parent="1" source="2Ltc1vQ2oG4xyeA2Q_cB-183" target="2Ltc1vQ2oG4xyeA2Q_cB-180" edge="1">
          <mxGeometry relative="1" as="geometry" />
        </mxCell>
        <mxCell id="2Ltc1vQ2oG4xyeA2Q_cB-183" value="Update Default" style="rounded=1;whiteSpace=wrap;html=1;absoluteArcSize=1;arcSize=14;strokeWidth=2;fillColor=none;" parent="1" vertex="1">
          <mxGeometry x="1005" y="531.75" width="100" height="41" as="geometry" />
        </mxCell>
        <mxCell id="2Ltc1vQ2oG4xyeA2Q_cB-186" value="Yes" style="text;html=1;align=center;verticalAlign=middle;resizable=0;points=[];autosize=1;" parent="1" vertex="1">
          <mxGeometry x="1055" y="460" width="40" height="20" as="geometry" />
        </mxCell>
        <mxCell id="2Ltc1vQ2oG4xyeA2Q_cB-198" style="edgeStyle=orthogonalEdgeStyle;rounded=0;orthogonalLoop=1;jettySize=auto;html=1;" parent="1" source="2Ltc1vQ2oG4xyeA2Q_cB-191" target="2Ltc1vQ2oG4xyeA2Q_cB-195" edge="1">
          <mxGeometry relative="1" as="geometry" />
        </mxCell>
        <mxCell id="2Ltc1vQ2oG4xyeA2Q_cB-200" style="edgeStyle=orthogonalEdgeStyle;rounded=0;orthogonalLoop=1;jettySize=auto;html=1;exitX=1;exitY=0.5;exitDx=0;exitDy=0;exitPerimeter=0;" parent="1" source="2Ltc1vQ2oG4xyeA2Q_cB-191" target="2Ltc1vQ2oG4xyeA2Q_cB-180" edge="1">
          <mxGeometry relative="1" as="geometry">
            <Array as="points">
              <mxPoint x="965" y="552.75" />
              <mxPoint x="965" y="631.75" />
              <mxPoint x="1215" y="631.75" />
            </Array>
          </mxGeometry>
        </mxCell>
        <mxCell id="2Ltc1vQ2oG4xyeA2Q_cB-191" value="Delete&lt;br&gt;Portfolio?" style="strokeWidth=2;html=1;shape=mxgraph.flowchart.decision;whiteSpace=wrap;fillColor=none;" parent="1" vertex="1">
          <mxGeometry x="830" y="502.25" width="100" height="100" as="geometry" />
        </mxCell>
        <mxCell id="2Ltc1vQ2oG4xyeA2Q_cB-199" style="edgeStyle=orthogonalEdgeStyle;rounded=0;orthogonalLoop=1;jettySize=auto;html=1;entryX=0.5;entryY=1;entryDx=0;entryDy=0;entryPerimeter=0;" parent="1" source="2Ltc1vQ2oG4xyeA2Q_cB-195" target="2Ltc1vQ2oG4xyeA2Q_cB-180" edge="1">
          <mxGeometry relative="1" as="geometry" />
        </mxCell>
        <mxCell id="2Ltc1vQ2oG4xyeA2Q_cB-195" value="Delete Portfolio" style="rounded=1;whiteSpace=wrap;html=1;absoluteArcSize=1;arcSize=14;strokeWidth=2;fillColor=none;" parent="1" vertex="1">
          <mxGeometry x="830" y="674.5" width="100" height="41" as="geometry" />
        </mxCell>
        <mxCell id="2Ltc1vQ2oG4xyeA2Q_cB-201" value="No" style="text;html=1;align=center;verticalAlign=middle;resizable=0;points=[];autosize=1;" parent="1" vertex="1">
          <mxGeometry x="924" y="525.75" width="30" height="20" as="geometry" />
        </mxCell>
        <mxCell id="2Ltc1vQ2oG4xyeA2Q_cB-202" value="Yes" style="text;html=1;align=center;verticalAlign=middle;resizable=0;points=[];autosize=1;" parent="1" vertex="1">
          <mxGeometry x="884" y="595.75" width="40" height="20" as="geometry" />
        </mxCell>
        <mxCell id="2Ltc1vQ2oG4xyeA2Q_cB-205" style="edgeStyle=orthogonalEdgeStyle;rounded=0;orthogonalLoop=1;jettySize=auto;html=1;exitX=0.5;exitY=1;exitDx=0;exitDy=0;" parent="1" source="2Ltc1vQ2oG4xyeA2Q_cB-125" target="2Ltc1vQ2oG4xyeA2Q_cB-125" edge="1">
          <mxGeometry relative="1" as="geometry" />
        </mxCell>
        <mxCell id="M3cbDM3AeFBdmVFurNVk-9" style="edgeStyle=orthogonalEdgeStyle;rounded=0;orthogonalLoop=1;jettySize=auto;html=1;" parent="1" source="M3cbDM3AeFBdmVFurNVk-5" target="M3cbDM3AeFBdmVFurNVk-15" edge="1">
          <mxGeometry relative="1" as="geometry">
            <mxPoint x="235" y="991.5" as="targetPoint" />
          </mxGeometry>
        </mxCell>
        <mxCell id="M3cbDM3AeFBdmVFurNVk-5" value="TM / Add Transaction" style="verticalLabelPosition=bottom;verticalAlign=top;html=1;shape=process;whiteSpace=wrap;rounded=1;size=0.14;arcSize=6;" parent="1" vertex="1">
          <mxGeometry x="50" y="970" width="100" height="43" as="geometry" />
        </mxCell>
        <mxCell id="M3cbDM3AeFBdmVFurNVk-18" style="edgeStyle=orthogonalEdgeStyle;rounded=0;orthogonalLoop=1;jettySize=auto;html=1;entryX=0;entryY=0.5;entryDx=0;entryDy=0;" parent="1" source="M3cbDM3AeFBdmVFurNVk-15" target="M3cbDM3AeFBdmVFurNVk-17" edge="1">
          <mxGeometry relative="1" as="geometry" />
        </mxCell>
        <mxCell id="M3cbDM3AeFBdmVFurNVk-15" value="Display&lt;br&gt;Script List" style="strokeWidth=2;html=1;shape=mxgraph.flowchart.display;whiteSpace=wrap;fillColor=none;" parent="1" vertex="1">
          <mxGeometry x="240" y="961.5" width="100" height="60" as="geometry" />
        </mxCell>
        <mxCell id="M3cbDM3AeFBdmVFurNVk-20" style="edgeStyle=orthogonalEdgeStyle;rounded=0;orthogonalLoop=1;jettySize=auto;html=1;entryX=0;entryY=0.5;entryDx=0;entryDy=0;" parent="1" source="M3cbDM3AeFBdmVFurNVk-17" target="M3cbDM3AeFBdmVFurNVk-19" edge="1">
          <mxGeometry relative="1" as="geometry" />
        </mxCell>
        <mxCell id="M3cbDM3AeFBdmVFurNVk-17" value="Selection &lt;br&gt;of Script" style="html=1;strokeWidth=2;shape=manualInput;whiteSpace=wrap;rounded=1;size=26;arcSize=11;fillColor=none;" parent="1" vertex="1">
          <mxGeometry x="410" y="952.5" width="100" height="78" as="geometry" />
        </mxCell>
        <mxCell id="M3cbDM3AeFBdmVFurNVk-22" style="edgeStyle=orthogonalEdgeStyle;rounded=0;orthogonalLoop=1;jettySize=auto;html=1;" parent="1" source="M3cbDM3AeFBdmVFurNVk-19" target="M3cbDM3AeFBdmVFurNVk-21" edge="1">
          <mxGeometry relative="1" as="geometry" />
        </mxCell>
        <mxCell id="M3cbDM3AeFBdmVFurNVk-19" value="Buy/Sell,&lt;br&gt;Qty, Price" style="html=1;strokeWidth=2;shape=manualInput;whiteSpace=wrap;rounded=1;size=26;arcSize=11;fillColor=none;" parent="1" vertex="1">
          <mxGeometry x="590" y="952.5" width="100" height="78" as="geometry" />
        </mxCell>
        <mxCell id="M3cbDM3AeFBdmVFurNVk-37" style="edgeStyle=orthogonalEdgeStyle;rounded=0;orthogonalLoop=1;jettySize=auto;html=1;" parent="1" source="M3cbDM3AeFBdmVFurNVk-21" target="M3cbDM3AeFBdmVFurNVk-36" edge="1">
          <mxGeometry relative="1" as="geometry" />
        </mxCell>
        <mxCell id="M3cbDM3AeFBdmVFurNVk-21" value="Update Data" style="rounded=1;whiteSpace=wrap;html=1;absoluteArcSize=1;arcSize=14;strokeWidth=2;" parent="1" vertex="1">
          <mxGeometry x="770" y="973" width="100" height="37" as="geometry" />
        </mxCell>
        <mxCell id="M3cbDM3AeFBdmVFurNVk-24" style="edgeStyle=orthogonalEdgeStyle;rounded=0;orthogonalLoop=1;jettySize=auto;html=1;entryX=0.5;entryY=1;entryDx=0;entryDy=0;" parent="1" source="M3cbDM3AeFBdmVFurNVk-23" target="M3cbDM3AeFBdmVFurNVk-19" edge="1">
          <mxGeometry relative="1" as="geometry" />
        </mxCell>
        <mxCell id="M3cbDM3AeFBdmVFurNVk-23" value="TM / Update Transaction" style="verticalLabelPosition=bottom;verticalAlign=top;html=1;shape=process;whiteSpace=wrap;rounded=1;size=0.14;arcSize=6;" parent="1" vertex="1">
          <mxGeometry x="50" y="1090" width="100" height="43" as="geometry" />
        </mxCell>
        <mxCell id="M3cbDM3AeFBdmVFurNVk-26" value="End" style="strokeWidth=2;html=1;shape=mxgraph.flowchart.terminator;whiteSpace=wrap;fillColor=none;" parent="1" vertex="1">
          <mxGeometry x="1100" y="972.25" width="100" height="38.5" as="geometry" />
        </mxCell>
        <mxCell id="M3cbDM3AeFBdmVFurNVk-31" style="edgeStyle=orthogonalEdgeStyle;rounded=0;orthogonalLoop=1;jettySize=auto;html=1;entryX=0;entryY=0.5;entryDx=0;entryDy=0;" parent="1" source="M3cbDM3AeFBdmVFurNVk-29" target="M3cbDM3AeFBdmVFurNVk-30" edge="1">
          <mxGeometry relative="1" as="geometry" />
        </mxCell>
        <mxCell id="M3cbDM3AeFBdmVFurNVk-29" value="Portfolio&lt;br&gt;Management" style="verticalLabelPosition=bottom;verticalAlign=top;html=1;shape=process;whiteSpace=wrap;rounded=1;size=0.14;arcSize=6;" parent="1" vertex="1">
          <mxGeometry x="50" y="1320" width="100" height="43" as="geometry" />
        </mxCell>
        <mxCell id="M3cbDM3AeFBdmVFurNVk-42" style="edgeStyle=orthogonalEdgeStyle;rounded=0;orthogonalLoop=1;jettySize=auto;html=1;entryX=0;entryY=0.5;entryDx=0;entryDy=0;" parent="1" source="M3cbDM3AeFBdmVFurNVk-30" edge="1">
          <mxGeometry relative="1" as="geometry">
            <mxPoint x="420" y="1341.5" as="targetPoint" />
          </mxGeometry>
        </mxCell>
        <mxCell id="M3cbDM3AeFBdmVFurNVk-30" value="Portfolio&lt;br&gt;Script List" style="shape=parallelogram;html=1;strokeWidth=2;perimeter=parallelogramPerimeter;whiteSpace=wrap;rounded=1;arcSize=12;size=0.23;fillColor=none;" parent="1" vertex="1">
          <mxGeometry x="230" y="1311.5" width="110" height="60" as="geometry" />
        </mxCell>
        <mxCell id="M3cbDM3AeFBdmVFurNVk-38" style="edgeStyle=orthogonalEdgeStyle;rounded=0;orthogonalLoop=1;jettySize=auto;html=1;entryX=0.5;entryY=0;entryDx=0;entryDy=0;entryPerimeter=0;" parent="1" source="M3cbDM3AeFBdmVFurNVk-36" target="M3cbDM3AeFBdmVFurNVk-15" edge="1">
          <mxGeometry relative="1" as="geometry">
            <Array as="points">
              <mxPoint x="990" y="910" />
              <mxPoint x="290" y="910" />
            </Array>
          </mxGeometry>
        </mxCell>
        <mxCell id="M3cbDM3AeFBdmVFurNVk-39" style="edgeStyle=orthogonalEdgeStyle;rounded=0;orthogonalLoop=1;jettySize=auto;html=1;" parent="1" source="M3cbDM3AeFBdmVFurNVk-36" target="M3cbDM3AeFBdmVFurNVk-26" edge="1">
          <mxGeometry relative="1" as="geometry" />
        </mxCell>
        <mxCell id="M3cbDM3AeFBdmVFurNVk-36" value="Add &lt;br&gt;Another?" style="strokeWidth=2;html=1;shape=mxgraph.flowchart.decision;whiteSpace=wrap;fillColor=none;" parent="1" vertex="1">
          <mxGeometry x="940" y="941.5" width="100" height="100" as="geometry" />
        </mxCell>
        <mxCell id="M3cbDM3AeFBdmVFurNVk-40" value="Yes" style="text;html=1;align=center;verticalAlign=middle;resizable=0;points=[];autosize=1;" parent="1" vertex="1">
          <mxGeometry x="990" y="921.5" width="40" height="20" as="geometry" />
        </mxCell>
        <mxCell id="M3cbDM3AeFBdmVFurNVk-41" value="No" style="text;html=1;align=center;verticalAlign=middle;resizable=0;points=[];autosize=1;" parent="1" vertex="1">
          <mxGeometry x="1034" y="970" width="30" height="20" as="geometry" />
        </mxCell>
        <mxCell id="M3cbDM3AeFBdmVFurNVk-46" style="edgeStyle=orthogonalEdgeStyle;rounded=0;orthogonalLoop=1;jettySize=auto;html=1;" parent="1" source="M3cbDM3AeFBdmVFurNVk-43" target="M3cbDM3AeFBdmVFurNVk-45" edge="1">
          <mxGeometry relative="1" as="geometry">
            <mxPoint x="830" y="1480" as="targetPoint" />
            <Array as="points">
              <mxPoint x="470" y="1430" />
              <mxPoint x="840" y="1430" />
            </Array>
          </mxGeometry>
        </mxCell>
        <mxCell id="M3cbDM3AeFBdmVFurNVk-50" style="edgeStyle=orthogonalEdgeStyle;rounded=0;orthogonalLoop=1;jettySize=auto;html=1;entryX=0;entryY=0.5;entryDx=0;entryDy=0;" parent="1" source="M3cbDM3AeFBdmVFurNVk-43" target="M3cbDM3AeFBdmVFurNVk-49" edge="1">
          <mxGeometry relative="1" as="geometry" />
        </mxCell>
        <mxCell id="M3cbDM3AeFBdmVFurNVk-43" value="Cache&lt;br&gt;expired?" style="strokeWidth=2;html=1;shape=mxgraph.flowchart.decision;whiteSpace=wrap;fillColor=none;" parent="1" vertex="1">
          <mxGeometry x="420" y="1292" width="100" height="100" as="geometry" />
        </mxCell>
        <mxCell id="M3cbDM3AeFBdmVFurNVk-58" style="edgeStyle=orthogonalEdgeStyle;rounded=0;orthogonalLoop=1;jettySize=auto;html=1;entryX=0;entryY=0.5;entryDx=0;entryDy=0;" parent="1" source="M3cbDM3AeFBdmVFurNVk-45" target="M3cbDM3AeFBdmVFurNVk-57" edge="1">
          <mxGeometry relative="1" as="geometry" />
        </mxCell>
        <mxCell id="M3cbDM3AeFBdmVFurNVk-45" value="Cache" style="strokeWidth=2;html=1;shape=mxgraph.flowchart.stored_data;whiteSpace=wrap;fillColor=none;" parent="1" vertex="1">
          <mxGeometry x="790" y="1312" width="100" height="60" as="geometry" />
        </mxCell>
        <mxCell id="M3cbDM3AeFBdmVFurNVk-47" value="No" style="text;html=1;align=center;verticalAlign=middle;resizable=0;points=[];autosize=1;" parent="1" vertex="1">
          <mxGeometry x="435" y="1392" width="30" height="20" as="geometry" />
        </mxCell>
        <mxCell id="M3cbDM3AeFBdmVFurNVk-51" style="edgeStyle=orthogonalEdgeStyle;rounded=0;orthogonalLoop=1;jettySize=auto;html=1;" parent="1" source="M3cbDM3AeFBdmVFurNVk-49" target="M3cbDM3AeFBdmVFurNVk-45" edge="1">
          <mxGeometry relative="1" as="geometry" />
        </mxCell>
        <mxCell id="M3cbDM3AeFBdmVFurNVk-49" value="SM / Get Price" style="verticalLabelPosition=bottom;verticalAlign=top;html=1;shape=process;whiteSpace=wrap;rounded=1;size=0.14;arcSize=6;fillColor=none;" parent="1" vertex="1">
          <mxGeometry x="600" y="1312" width="100" height="60" as="geometry" />
        </mxCell>
        <mxCell id="M3cbDM3AeFBdmVFurNVk-52" value="Yes" style="text;html=1;align=center;verticalAlign=middle;resizable=0;points=[];autosize=1;" parent="1" vertex="1">
          <mxGeometry x="510" y="1320" width="40" height="20" as="geometry" />
        </mxCell>
        <mxCell id="M3cbDM3AeFBdmVFurNVk-54" value="End" style="strokeWidth=2;html=1;shape=mxgraph.flowchart.terminator;whiteSpace=wrap;fillColor=none;" parent="1" vertex="1">
          <mxGeometry x="1135" y="1323" width="100" height="38" as="geometry" />
        </mxCell>
        <mxCell id="M3cbDM3AeFBdmVFurNVk-59" style="edgeStyle=orthogonalEdgeStyle;rounded=0;orthogonalLoop=1;jettySize=auto;html=1;entryX=0;entryY=0.5;entryDx=0;entryDy=0;entryPerimeter=0;" parent="1" source="M3cbDM3AeFBdmVFurNVk-57" target="M3cbDM3AeFBdmVFurNVk-54" edge="1">
          <mxGeometry relative="1" as="geometry" />
        </mxCell>
        <mxCell id="M3cbDM3AeFBdmVFurNVk-57" value="Calculate&lt;br&gt;Portfolio" style="rounded=1;whiteSpace=wrap;html=1;absoluteArcSize=1;arcSize=14;strokeWidth=2;fillColor=none;" parent="1" vertex="1">
          <mxGeometry x="970" y="1318" width="100" height="48" as="geometry" />
        </mxCell>
        <mxCell id="M3cbDM3AeFBdmVFurNVk-68" style="edgeStyle=orthogonalEdgeStyle;rounded=0;orthogonalLoop=1;jettySize=auto;html=1;entryX=0;entryY=0.5;entryDx=0;entryDy=0;entryPerimeter=0;" parent="1" source="M3cbDM3AeFBdmVFurNVk-64" target="M3cbDM3AeFBdmVFurNVk-67" edge="1">
          <mxGeometry relative="1" as="geometry" />
        </mxCell>
        <mxCell id="M3cbDM3AeFBdmVFurNVk-64" value="Start" style="strokeWidth=2;html=1;shape=mxgraph.flowchart.start_1;whiteSpace=wrap;fillColor=none;" parent="1" vertex="1">
          <mxGeometry x="210" y="1610" width="100" height="40" as="geometry" />
        </mxCell>
        <mxCell id="M3cbDM3AeFBdmVFurNVk-77" style="edgeStyle=orthogonalEdgeStyle;rounded=0;orthogonalLoop=1;jettySize=auto;html=1;entryX=0;entryY=0.5;entryDx=0;entryDy=0;" parent="1" source="M3cbDM3AeFBdmVFurNVk-67" target="M3cbDM3AeFBdmVFurNVk-76" edge="1">
          <mxGeometry relative="1" as="geometry" />
        </mxCell>
        <mxCell id="M3cbDM3AeFBdmVFurNVk-67" value="BSE/NSE&lt;br&gt;Bhavcopy" style="strokeWidth=2;html=1;shape=mxgraph.flowchart.direct_data;whiteSpace=wrap;fillColor=none;" parent="1" vertex="1">
          <mxGeometry x="395" y="1600" width="110" height="60" as="geometry" />
        </mxCell>
        <mxCell id="M3cbDM3AeFBdmVFurNVk-79" style="edgeStyle=orthogonalEdgeStyle;rounded=0;orthogonalLoop=1;jettySize=auto;html=1;entryX=0;entryY=0.5;entryDx=0;entryDy=0;entryPerimeter=0;" parent="1" source="M3cbDM3AeFBdmVFurNVk-76" target="M3cbDM3AeFBdmVFurNVk-78" edge="1">
          <mxGeometry relative="1" as="geometry" />
        </mxCell>
        <mxCell id="M3cbDM3AeFBdmVFurNVk-76" value="Filter Script with Script Master" style="rounded=1;whiteSpace=wrap;html=1;absoluteArcSize=1;arcSize=14;strokeWidth=2;fillColor=none;" parent="1" vertex="1">
          <mxGeometry x="575" y="1600" width="100" height="60" as="geometry" />
        </mxCell>
        <mxCell id="M3cbDM3AeFBdmVFurNVk-81" style="edgeStyle=orthogonalEdgeStyle;rounded=0;orthogonalLoop=1;jettySize=auto;html=1;" parent="1" source="M3cbDM3AeFBdmVFurNVk-78" target="M3cbDM3AeFBdmVFurNVk-80" edge="1">
          <mxGeometry relative="1" as="geometry" />
        </mxCell>
        <mxCell id="M3cbDM3AeFBdmVFurNVk-78" value="Add Prices" style="strokeWidth=2;html=1;shape=mxgraph.flowchart.database;whiteSpace=wrap;fillColor=none;" parent="1" vertex="1">
          <mxGeometry x="765" y="1580" width="60" height="100" as="geometry" />
        </mxCell>
        <mxCell id="M3cbDM3AeFBdmVFurNVk-80" value="End" style="strokeWidth=2;html=1;shape=mxgraph.flowchart.terminator;whiteSpace=wrap;fillColor=none;" parent="1" vertex="1">
          <mxGeometry x="905" y="1610" width="100" height="40" as="geometry" />
        </mxCell>
        <mxCell id="F3JJ8rzYCataF3yM45pd-5" style="edgeStyle=orthogonalEdgeStyle;rounded=0;orthogonalLoop=1;jettySize=auto;html=1;entryX=0;entryY=0.5;entryDx=0;entryDy=0;" edge="1" parent="1" source="F3JJ8rzYCataF3yM45pd-3" target="F3JJ8rzYCataF3yM45pd-4">
          <mxGeometry relative="1" as="geometry" />
        </mxCell>
        <mxCell id="F3JJ8rzYCataF3yM45pd-3" value="SM / Get Price" style="verticalLabelPosition=bottom;verticalAlign=top;html=1;shape=process;whiteSpace=wrap;rounded=1;size=0.14;arcSize=6;" vertex="1" parent="1">
          <mxGeometry x="50" y="1850" width="100" height="43" as="geometry" />
        </mxCell>
        <mxCell id="F3JJ8rzYCataF3yM45pd-8" style="edgeStyle=orthogonalEdgeStyle;rounded=0;orthogonalLoop=1;jettySize=auto;html=1;" edge="1" parent="1" source="F3JJ8rzYCataF3yM45pd-4" target="F3JJ8rzYCataF3yM45pd-7">
          <mxGeometry relative="1" as="geometry" />
        </mxCell>
        <mxCell id="F3JJ8rzYCataF3yM45pd-4" value="Get &lt;br&gt;Script Price" style="rounded=1;whiteSpace=wrap;html=1;absoluteArcSize=1;arcSize=14;strokeWidth=2;fillColor=none;" vertex="1" parent="1">
          <mxGeometry x="235" y="1847.5" width="100" height="48" as="geometry" />
        </mxCell>
        <mxCell id="F3JJ8rzYCataF3yM45pd-7" value="Script&lt;br&gt;Table" style="strokeWidth=2;html=1;shape=mxgraph.flowchart.database;whiteSpace=wrap;fillColor=none;" vertex="1" parent="1">
          <mxGeometry x="465" y="1880" width="60" height="100" as="geometry" />
        </mxCell>
        <mxCell id="F3JJ8rzYCataF3yM45pd-12" style="edgeStyle=orthogonalEdgeStyle;rounded=0;orthogonalLoop=1;jettySize=auto;html=1;entryX=0;entryY=0.5;entryDx=0;entryDy=0;" edge="1" parent="1" source="F3JJ8rzYCataF3yM45pd-9" target="F3JJ8rzYCataF3yM45pd-11">
          <mxGeometry relative="1" as="geometry" />
        </mxCell>
        <mxCell id="F3JJ8rzYCataF3yM45pd-9" value="SM / Get All&lt;br&gt;Scripts" style="verticalLabelPosition=bottom;verticalAlign=top;html=1;shape=process;whiteSpace=wrap;rounded=1;size=0.14;arcSize=6;" vertex="1" parent="1">
          <mxGeometry x="50" y="1960" width="100" height="43" as="geometry" />
        </mxCell>
        <mxCell id="F3JJ8rzYCataF3yM45pd-13" style="edgeStyle=orthogonalEdgeStyle;rounded=0;orthogonalLoop=1;jettySize=auto;html=1;entryX=0;entryY=0.5;entryDx=0;entryDy=0;entryPerimeter=0;" edge="1" parent="1" source="F3JJ8rzYCataF3yM45pd-11" target="F3JJ8rzYCataF3yM45pd-7">
          <mxGeometry relative="1" as="geometry" />
        </mxCell>
        <mxCell id="F3JJ8rzYCataF3yM45pd-11" value="Get &lt;br&gt;Script List" style="rounded=1;whiteSpace=wrap;html=1;absoluteArcSize=1;arcSize=14;strokeWidth=2;fillColor=none;" vertex="1" parent="1">
          <mxGeometry x="235" y="1957.5" width="100" height="48" as="geometry" />
        </mxCell>
        <mxCell id="F3JJ8rzYCataF3yM45pd-14" value="Script Manager" style="verticalLabelPosition=bottom;verticalAlign=top;html=1;shape=mxgraph.basic.rect;fillColor2=none;strokeWidth=1;size=20;indent=5;fillColor=none;" vertex="1" parent="1">
          <mxGeometry x="190" y="1820" width="380" height="220" as="geometry" />
        </mxCell>
      </root>
    </mxGraphModel>
  </diagram>
  <diagram id="qo131XKTaKtu-dOTQR-E" name="Class">
    <mxGraphModel dx="1662" dy="762" grid="1" gridSize="10" guides="1" tooltips="1" connect="1" arrows="1" fold="1" page="1" pageScale="1" pageWidth="850" pageHeight="1100" math="0" shadow="0">
      <root>
        <mxCell id="GBYQ4Yu2EIDzl95YVu-a-0" />
        <mxCell id="GBYQ4Yu2EIDzl95YVu-a-1" parent="GBYQ4Yu2EIDzl95YVu-a-0" />
        <mxCell id="GBYQ4Yu2EIDzl95YVu-a-16" value="" style="endArrow=diamondThin;endFill=1;endSize=24;html=1;" edge="1" parent="GBYQ4Yu2EIDzl95YVu-a-1" source="GBYQ4Yu2EIDzl95YVu-a-2" target="GBYQ4Yu2EIDzl95YVu-a-8">
          <mxGeometry width="160" relative="1" as="geometry">
            <mxPoint x="420" y="204" as="sourcePoint" />
            <mxPoint x="260" y="204" as="targetPoint" />
          </mxGeometry>
        </mxCell>
        <mxCell id="GBYQ4Yu2EIDzl95YVu-a-17" value="1" style="edgeLabel;html=1;align=center;verticalAlign=middle;resizable=0;points=[];" vertex="1" connectable="0" parent="GBYQ4Yu2EIDzl95YVu-a-16">
          <mxGeometry x="0.6869" y="-4" relative="1" as="geometry">
            <mxPoint y="-7.6899999999999995" as="offset" />
          </mxGeometry>
        </mxCell>
        <mxCell id="GBYQ4Yu2EIDzl95YVu-a-18" value="1..M" style="edgeLabel;html=1;align=center;verticalAlign=middle;resizable=0;points=[];" vertex="1" connectable="0" parent="GBYQ4Yu2EIDzl95YVu-a-16">
          <mxGeometry x="-0.8747" y="2" relative="1" as="geometry">
            <mxPoint x="-7.029999999999999" y="-14.12" as="offset" />
          </mxGeometry>
        </mxCell>
        <mxCell id="GBYQ4Yu2EIDzl95YVu-a-32" value="" style="endArrow=diamondThin;endFill=1;endSize=24;html=1;exitX=0.5;exitY=0;exitDx=0;exitDy=0;" edge="1" parent="GBYQ4Yu2EIDzl95YVu-a-1" source="GBYQ4Yu2EIDzl95YVu-a-23" target="GBYQ4Yu2EIDzl95YVu-a-2">
          <mxGeometry width="160" relative="1" as="geometry">
            <mxPoint x="500" y="214" as="sourcePoint" />
            <mxPoint x="340" y="214" as="targetPoint" />
          </mxGeometry>
        </mxCell>
        <mxCell id="GBYQ4Yu2EIDzl95YVu-a-33" value="1" style="edgeLabel;html=1;align=center;verticalAlign=middle;resizable=0;points=[];" vertex="1" connectable="0" parent="GBYQ4Yu2EIDzl95YVu-a-32">
          <mxGeometry x="0.6869" y="-4" relative="1" as="geometry">
            <mxPoint x="6" y="9.000000000000002" as="offset" />
          </mxGeometry>
        </mxCell>
        <mxCell id="GBYQ4Yu2EIDzl95YVu-a-34" value="1..M" style="edgeLabel;html=1;align=center;verticalAlign=middle;resizable=0;points=[];" vertex="1" connectable="0" parent="GBYQ4Yu2EIDzl95YVu-a-32">
          <mxGeometry x="-0.8747" y="2" relative="1" as="geometry">
            <mxPoint x="17" y="-5" as="offset" />
          </mxGeometry>
        </mxCell>
        <mxCell id="GBYQ4Yu2EIDzl95YVu-a-46" value="" style="endArrow=diamondThin;endFill=1;endSize=24;html=1;" edge="1" parent="GBYQ4Yu2EIDzl95YVu-a-1" source="GBYQ4Yu2EIDzl95YVu-a-23" target="GBYQ4Yu2EIDzl95YVu-a-35">
          <mxGeometry width="160" relative="1" as="geometry">
            <mxPoint x="430" y="358.5" as="sourcePoint" />
            <mxPoint x="270" y="358.5" as="targetPoint" />
          </mxGeometry>
        </mxCell>
        <mxCell id="GBYQ4Yu2EIDzl95YVu-a-47" value="1" style="edgeLabel;html=1;align=center;verticalAlign=middle;resizable=0;points=[];" vertex="1" connectable="0" parent="GBYQ4Yu2EIDzl95YVu-a-46">
          <mxGeometry x="0.6869" y="-4" relative="1" as="geometry">
            <mxPoint y="-7.6899999999999995" as="offset" />
          </mxGeometry>
        </mxCell>
        <mxCell id="GBYQ4Yu2EIDzl95YVu-a-48" value="1..M" style="edgeLabel;html=1;align=center;verticalAlign=middle;resizable=0;points=[];" vertex="1" connectable="0" parent="GBYQ4Yu2EIDzl95YVu-a-46">
          <mxGeometry x="-0.8747" y="2" relative="1" as="geometry">
            <mxPoint x="-7.029999999999999" y="-14.12" as="offset" />
          </mxGeometry>
        </mxCell>
        <mxCell id="GBYQ4Yu2EIDzl95YVu-a-8" value="User" style="swimlane;fontStyle=1;align=center;verticalAlign=top;childLayout=stackLayout;horizontal=1;startSize=26;horizontalStack=0;resizeParent=1;resizeParentMax=0;resizeLast=0;collapsible=1;marginBottom=0;" vertex="1" parent="GBYQ4Yu2EIDzl95YVu-a-1">
          <mxGeometry x="80" y="73" width="160" height="86" as="geometry" />
        </mxCell>
        <mxCell id="GBYQ4Yu2EIDzl95YVu-a-9" value="+ email: String" style="text;strokeColor=none;fillColor=none;align=left;verticalAlign=top;spacingLeft=4;spacingRight=4;overflow=hidden;rotatable=0;points=[[0,0.5],[1,0.5]];portConstraint=eastwest;" vertex="1" parent="GBYQ4Yu2EIDzl95YVu-a-8">
          <mxGeometry y="26" width="160" height="26" as="geometry" />
        </mxCell>
        <mxCell id="GBYQ4Yu2EIDzl95YVu-a-10" value="+ password: String" style="text;strokeColor=none;fillColor=none;align=left;verticalAlign=top;spacingLeft=4;spacingRight=4;overflow=hidden;rotatable=0;points=[[0,0.5],[1,0.5]];portConstraint=eastwest;" vertex="1" parent="GBYQ4Yu2EIDzl95YVu-a-8">
          <mxGeometry y="52" width="160" height="26" as="geometry" />
        </mxCell>
        <mxCell id="GBYQ4Yu2EIDzl95YVu-a-11" value="" style="line;strokeWidth=1;fillColor=none;align=left;verticalAlign=middle;spacingTop=-1;spacingLeft=3;spacingRight=3;rotatable=0;labelPosition=right;points=[];portConstraint=eastwest;" vertex="1" parent="GBYQ4Yu2EIDzl95YVu-a-8">
          <mxGeometry y="78" width="160" height="8" as="geometry" />
        </mxCell>
        <mxCell id="GBYQ4Yu2EIDzl95YVu-a-23" value="Transaction" style="swimlane;fontStyle=1;align=center;verticalAlign=top;childLayout=stackLayout;horizontal=1;startSize=26;horizontalStack=0;resizeParent=1;resizeParentMax=0;resizeLast=0;collapsible=1;marginBottom=0;" vertex="1" parent="GBYQ4Yu2EIDzl95YVu-a-1">
          <mxGeometry x="400" y="264" width="160" height="190" as="geometry" />
        </mxCell>
        <mxCell id="GBYQ4Yu2EIDzl95YVu-a-24" value="+ id: UUID" style="text;strokeColor=none;fillColor=none;align=left;verticalAlign=top;spacingLeft=4;spacingRight=4;overflow=hidden;rotatable=0;points=[[0,0.5],[1,0.5]];portConstraint=eastwest;" vertex="1" parent="GBYQ4Yu2EIDzl95YVu-a-23">
          <mxGeometry y="26" width="160" height="26" as="geometry" />
        </mxCell>
        <mxCell id="GBYQ4Yu2EIDzl95YVu-a-25" value="+ type: Enum" style="text;strokeColor=none;fillColor=none;align=left;verticalAlign=top;spacingLeft=4;spacingRight=4;overflow=hidden;rotatable=0;points=[[0,0.5],[1,0.5]];portConstraint=eastwest;" vertex="1" parent="GBYQ4Yu2EIDzl95YVu-a-23">
          <mxGeometry y="52" width="160" height="26" as="geometry" />
        </mxCell>
        <mxCell id="GBYQ4Yu2EIDzl95YVu-a-27" value="+ exchange: Enum" style="text;strokeColor=none;fillColor=none;align=left;verticalAlign=top;spacingLeft=4;spacingRight=4;overflow=hidden;rotatable=0;points=[[0,0.5],[1,0.5]];portConstraint=eastwest;" vertex="1" parent="GBYQ4Yu2EIDzl95YVu-a-23">
          <mxGeometry y="78" width="160" height="26" as="geometry" />
        </mxCell>
        <mxCell id="GBYQ4Yu2EIDzl95YVu-a-29" value="+ price: Decimal" style="text;strokeColor=none;fillColor=none;align=left;verticalAlign=top;spacingLeft=4;spacingRight=4;overflow=hidden;rotatable=0;points=[[0,0.5],[1,0.5]];portConstraint=eastwest;" vertex="1" parent="GBYQ4Yu2EIDzl95YVu-a-23">
          <mxGeometry y="104" width="160" height="26" as="geometry" />
        </mxCell>
        <mxCell id="GBYQ4Yu2EIDzl95YVu-a-30" value="+ quantity: Decimal" style="text;strokeColor=none;fillColor=none;align=left;verticalAlign=top;spacingLeft=4;spacingRight=4;overflow=hidden;rotatable=0;points=[[0,0.5],[1,0.5]];portConstraint=eastwest;" vertex="1" parent="GBYQ4Yu2EIDzl95YVu-a-23">
          <mxGeometry y="130" width="160" height="26" as="geometry" />
        </mxCell>
        <mxCell id="GBYQ4Yu2EIDzl95YVu-a-31" value="+ transactionDate: Date" style="text;strokeColor=none;fillColor=none;align=left;verticalAlign=top;spacingLeft=4;spacingRight=4;overflow=hidden;rotatable=0;points=[[0,0.5],[1,0.5]];portConstraint=eastwest;" vertex="1" parent="GBYQ4Yu2EIDzl95YVu-a-23">
          <mxGeometry y="156" width="160" height="26" as="geometry" />
        </mxCell>
        <mxCell id="GBYQ4Yu2EIDzl95YVu-a-26" value="" style="line;strokeWidth=1;fillColor=none;align=left;verticalAlign=middle;spacingTop=-1;spacingLeft=3;spacingRight=3;rotatable=0;labelPosition=right;points=[];portConstraint=eastwest;" vertex="1" parent="GBYQ4Yu2EIDzl95YVu-a-23">
          <mxGeometry y="182" width="160" height="8" as="geometry" />
        </mxCell>
        <mxCell id="GBYQ4Yu2EIDzl95YVu-a-35" value="Script" style="swimlane;fontStyle=1;align=center;verticalAlign=top;childLayout=stackLayout;horizontal=1;startSize=26;horizontalStack=0;resizeParent=1;resizeParentMax=0;resizeLast=0;collapsible=1;marginBottom=0;" vertex="1" parent="GBYQ4Yu2EIDzl95YVu-a-1">
          <mxGeometry x="80" y="277" width="160" height="164" as="geometry" />
        </mxCell>
        <mxCell id="GBYQ4Yu2EIDzl95YVu-a-36" value="+ id: String" style="text;strokeColor=none;fillColor=none;align=left;verticalAlign=top;spacingLeft=4;spacingRight=4;overflow=hidden;rotatable=0;points=[[0,0.5],[1,0.5]];portConstraint=eastwest;" vertex="1" parent="GBYQ4Yu2EIDzl95YVu-a-35">
          <mxGeometry y="26" width="160" height="26" as="geometry" />
        </mxCell>
        <mxCell id="GBYQ4Yu2EIDzl95YVu-a-37" value="+ type: Enum" style="text;strokeColor=none;fillColor=none;align=left;verticalAlign=top;spacingLeft=4;spacingRight=4;overflow=hidden;rotatable=0;points=[[0,0.5],[1,0.5]];portConstraint=eastwest;" vertex="1" parent="GBYQ4Yu2EIDzl95YVu-a-35">
          <mxGeometry y="52" width="160" height="26" as="geometry" />
        </mxCell>
        <mxCell id="GBYQ4Yu2EIDzl95YVu-a-38" value="+ subtype: Enum" style="text;strokeColor=none;fillColor=none;align=left;verticalAlign=top;spacingLeft=4;spacingRight=4;overflow=hidden;rotatable=0;points=[[0,0.5],[1,0.5]];portConstraint=eastwest;" vertex="1" parent="GBYQ4Yu2EIDzl95YVu-a-35">
          <mxGeometry y="78" width="160" height="26" as="geometry" />
        </mxCell>
        <mxCell id="GBYQ4Yu2EIDzl95YVu-a-40" value="+ name: String" style="text;strokeColor=none;fillColor=none;align=left;verticalAlign=top;spacingLeft=4;spacingRight=4;overflow=hidden;rotatable=0;points=[[0,0.5],[1,0.5]];portConstraint=eastwest;" vertex="1" parent="GBYQ4Yu2EIDzl95YVu-a-35">
          <mxGeometry y="104" width="160" height="26" as="geometry" />
        </mxCell>
        <mxCell id="GBYQ4Yu2EIDzl95YVu-a-41" value="+ exchange: Enum" style="text;strokeColor=none;fillColor=none;align=left;verticalAlign=top;spacingLeft=4;spacingRight=4;overflow=hidden;rotatable=0;points=[[0,0.5],[1,0.5]];portConstraint=eastwest;" vertex="1" parent="GBYQ4Yu2EIDzl95YVu-a-35">
          <mxGeometry y="130" width="160" height="26" as="geometry" />
        </mxCell>
        <mxCell id="GBYQ4Yu2EIDzl95YVu-a-42" value="" style="line;strokeWidth=1;fillColor=none;align=left;verticalAlign=middle;spacingTop=-1;spacingLeft=3;spacingRight=3;rotatable=0;labelPosition=right;points=[];portConstraint=eastwest;" vertex="1" parent="GBYQ4Yu2EIDzl95YVu-a-35">
          <mxGeometry y="156" width="160" height="8" as="geometry" />
        </mxCell>
        <mxCell id="GBYQ4Yu2EIDzl95YVu-a-2" value="Portfolio" style="swimlane;fontStyle=1;align=center;verticalAlign=top;childLayout=stackLayout;horizontal=1;startSize=26;horizontalStack=0;resizeParent=1;resizeParentMax=0;resizeLast=0;collapsible=1;marginBottom=0;" vertex="1" parent="GBYQ4Yu2EIDzl95YVu-a-1">
          <mxGeometry x="400" y="60" width="160" height="112" as="geometry" />
        </mxCell>
        <mxCell id="GBYQ4Yu2EIDzl95YVu-a-3" value="+ id: UUID" style="text;strokeColor=none;fillColor=none;align=left;verticalAlign=top;spacingLeft=4;spacingRight=4;overflow=hidden;rotatable=0;points=[[0,0.5],[1,0.5]];portConstraint=eastwest;" vertex="1" parent="GBYQ4Yu2EIDzl95YVu-a-2">
          <mxGeometry y="26" width="160" height="26" as="geometry" />
        </mxCell>
        <mxCell id="GBYQ4Yu2EIDzl95YVu-a-7" value="+ name: String" style="text;strokeColor=none;fillColor=none;align=left;verticalAlign=top;spacingLeft=4;spacingRight=4;overflow=hidden;rotatable=0;points=[[0,0.5],[1,0.5]];portConstraint=eastwest;" vertex="1" parent="GBYQ4Yu2EIDzl95YVu-a-2">
          <mxGeometry y="52" width="160" height="26" as="geometry" />
        </mxCell>
        <mxCell id="GBYQ4Yu2EIDzl95YVu-a-49" value="+ totalWorth: Decimal" style="text;strokeColor=none;fillColor=none;align=left;verticalAlign=top;spacingLeft=4;spacingRight=4;overflow=hidden;rotatable=0;points=[[0,0.5],[1,0.5]];portConstraint=eastwest;" vertex="1" parent="GBYQ4Yu2EIDzl95YVu-a-2">
          <mxGeometry y="78" width="160" height="26" as="geometry" />
        </mxCell>
        <mxCell id="GBYQ4Yu2EIDzl95YVu-a-4" value="" style="line;strokeWidth=1;fillColor=none;align=left;verticalAlign=middle;spacingTop=-1;spacingLeft=3;spacingRight=3;rotatable=0;labelPosition=right;points=[];portConstraint=eastwest;" vertex="1" parent="GBYQ4Yu2EIDzl95YVu-a-2">
          <mxGeometry y="104" width="160" height="8" as="geometry" />
        </mxCell>
      </root>
    </mxGraphModel>
  </diagram>
</mxfile>
